<?xml version="1.0" encoding="utf-8"?>
<!-- Generator: Adobe Illustrator 24.0.1, SVG Export Plug-In . SVG Version: 6.00 Build 0)  -->
<svg version="1.1" id="Calque_1" xmlns="http://www.w3.org/2000/svg" xmlns:xlink="http://www.w3.org/1999/xlink" x="0px" y="0px"
	 viewBox="0 0 1920 1080" style="enable-background:new 0 0 1920 1080;" xml:space="preserve">
<style type="text/css">
	.st0{fill:#875AE0;}
</style>
<g>
	<circle class="st0" cx="35" cy="20" r="51"/>
</g>
<g>
	<circle class="st0" cx="86.36" cy="0.07" r="25.36"/>
</g>
<g>
	<circle class="st0" cx="-16" cy="82" r="51"/>
</g>
<g>
	<circle class="st0" cx="144" cy="7" r="51"/>
</g>
<g>
	<circle class="st0" cx="78" cy="45" r="51"/>
</g>
<g>
	<circle class="st0" cx="35" cy="82" r="51"/>
</g>
<g>
	<circle class="st0" cx="207" cy="70" r="12"/>
</g>
<g>
	<circle class="st0" cx="26.86" cy="158.29" r="11.14"/>
</g>
<g>
	<circle class="st0" cx="292.36" cy="30.79" r="17.64"/>
</g>
<g>
	<circle class="st0" cx="178.65" cy="152.08" r="55.92"/>
</g>
<g>
	<circle class="st0" cx="262.36" cy="99.79" r="6.64"/>
</g>
<g>
	<circle class="st0" cx="1649.94" cy="13.22" r="96.22"/>
</g>
<g>
	<circle class="st0" cx="1453.44" cy="-6.28" r="136.72"/>
</g>
<g>
	<circle class="st0" cx="1266.94" cy="0.22" r="132.22"/>
</g>
<g>
	<circle class="st0" cx="1122" cy="-31" r="94"/>
</g>
<g>
	<circle class="st0" cx="1773" cy="-26" r="82"/>
</g>
<g>
	<circle class="st0" cx="1554" cy="25" r="82"/>
</g>
<g>
	<circle class="st0" cx="1349" cy="25" r="82"/>
</g>
<g>
	<circle class="st0" cx="1920" cy="-31" r="82"/>
</g>
<g>
	<circle class="st0" cx="1869.36" cy="81.79" r="19.64"/>
</g>
<g>
	<circle class="st0" cx="1800.36" cy="86.79" r="9.64"/>
</g>
<g>
	<circle class="st0" cx="1025" cy="-77" r="94"/>
</g>
<g>
	<circle class="st0" cx="932" cy="-44" r="94"/>
</g>
<g>
	<circle class="st0" cx="842.5" cy="-43.5" r="71.5"/>
</g>
<g>
	<circle class="st0" cx="535" cy="-66" r="94"/>
</g>
<g>
	<circle class="st0" cx="450" cy="-44" r="94"/>
</g>
<g>
	<circle class="st0" cx="373" cy="-77" r="94"/>
</g>
<g>
	<circle class="st0" cx="182.5" cy="-44.5" r="52.5"/>
</g>
<g>
	<circle class="st0" cx="207.86" cy="-30.57" r="46.86"/>
</g>
<g>
	<circle class="st0" cx="256" cy="-87" r="94"/>
</g>
<g>
	<circle class="st0" cx="92.72" cy="176.29" r="6.64"/>
</g>
<g>
	<circle class="st0" cx="753.72" cy="45.29" r="17.64"/>
</g>
<g>
	<circle class="st0" cx="708.04" cy="81.97" r="8.96"/>
</g>
<g>
	<circle class="st0" cx="1107.04" cy="106.97" r="8.96"/>
</g>
<g>
	<circle class="st0" cx="1563.04" cy="173.97" r="8.96"/>
</g>
</svg>
