<svg width="134" height="134" viewBox="0 0 134 134" fill="none" xmlns="http://www.w3.org/2000/svg">
<g clip-path="url(#clip0_1_5)">
<path d="M114.618 61.4533C115.168 59.8823 114.436 58.1263 112.984 57.5317C111.53 56.937 109.908 57.7288 109.359 59.2998C107.625 64.2546 104.766 68.1251 101.01 70.6531C101.236 57.0772 102.87 54 111.989 54C122.051 54 123 57.747 123 75.2101C123 92.25 119.754 95 111.989 95C110.223 95 108.692 94.8567 107.379 94.4367C107.144 94.3056 106.89 94.2076 106.62 94.1517C102.951 92.5484 101.21 88.218 101 77.5269C107.212 74.5065 112.041 68.8202 114.618 61.4533Z" fill="#42FFF4"/>
<path d="M9.37643 10.6104C8.93818 10.7554 8.53923 10.9668 8.20034 11.2305C8.53738 10.9677 8.93559 10.7557 9.37643 10.6104Z" fill="#B4F0DF"/>
<path d="M9.71011 10.5153C9.5974 10.5428 9.48654 10.5742 9.3779 10.6101C9.48617 10.5745 9.59703 10.5425 9.71011 10.5153Z" fill="#B4F0DF"/>
<path d="M8.18927 11.2389C8.11474 11.2972 8.04466 11.3594 7.97607 11.4225C8.04429 11.3591 8.11474 11.2975 8.18927 11.2389Z" fill="#B4F0DF"/>
<path d="M7.72284 11.6841C7.67399 11.7406 7.62999 11.7998 7.58637 11.8593C7.62999 11.8001 7.67399 11.7409 7.72284 11.6841Z" fill="#B4F0DF"/>
<path d="M10.7765 10.3882C10.7802 10.3882 10.7839 10.3885 10.788 10.3885C10.735 10.3885 10.6832 10.3924 10.6306 10.3939C10.6791 10.3927 10.7273 10.3882 10.7765 10.3882Z" fill="#B4F0DF"/>
<path d="M11.1706 10.4056C11.1017 10.3996 11.0338 10.3987 10.9656 10.396C11.0342 10.3987 11.1031 10.3999 11.1706 10.4056Z" fill="#B4F0DF"/>
<path d="M10.4146 10.4032C10.3434 10.4088 10.2734 10.419 10.2033 10.4277C10.2734 10.4187 10.3431 10.4085 10.4146 10.4032Z" fill="#B4F0DF"/>
<path d="M7.08987 13.0623C7.08391 13.1086 7.08316 13.1541 7.07981 13.2001C7.08316 13.1541 7.08391 13.1077 7.08987 13.0623Z" fill="#B4F0DF"/>
<path d="M7.14923 12.76C7.13198 12.8252 7.12109 12.8921 7.10908 12.9591C7.12071 12.8921 7.13198 12.8252 7.14923 12.76Z" fill="#B4F0DF"/>
<path d="M7.3717 12.1951C7.33889 12.2558 7.31167 12.3189 7.28371 12.3817C7.3113 12.3189 7.33889 12.2561 7.3717 12.1951Z" fill="#B4F0DF"/>
<path d="M7.53186 11.9326C7.49233 11.9897 7.45766 12.0495 7.42261 12.109C7.45766 12.0495 7.49233 11.99 7.53186 11.9326Z" fill="#B4F0DF"/>
<path d="M7.24374 12.4711C7.21782 12.5366 7.19782 12.6039 7.17745 12.6712C7.19782 12.6039 7.21782 12.5363 7.24374 12.4711Z" fill="#B4F0DF"/>
<path d="M10.0557 10.4459C9.95966 10.4615 9.86512 10.4812 9.77131 10.5027C9.86512 10.4812 9.95929 10.4612 10.0557 10.4459Z" fill="#B4F0DF"/>
<path d="M105.999 41C100.749 41 96.3187 37.6041 95 33H117C115.681 37.6044 111.25 41 105.999 41Z" fill="#FFEBD4"/>
<path d="M95 27C96.3184 22.3954 100.75 19 105.999 19C111.249 19 115.681 22.3954 117 27H95Z" fill="#6ECCAE"/>
<path d="M105.5 13C103.018 13 101 11.4301 101 9.50032C101 7.57023 103.018 6 105.5 6C107.981 6 110 7.57023 110 9.50032C110 11.4301 107.981 13 105.5 13Z" fill="#A3FF2F"/>
<path d="M105.499 47C95.85 47 88 39.2565 88 29.7386C88 22.9822 91.9603 17.1237 97.7104 14.293C96.7303 12.8357 96.1574 11.0899 96.1574 9.21412C96.1574 4.13344 100.348 0 105.5 0C110.651 0 114.842 4.13344 114.842 9.21412C114.842 11.0902 114.269 12.836 113.289 14.2933C119.039 17.1243 123 22.9825 123 29.7389C123 39.2568 115.149 47 105.499 47ZM105.5 5.9444C103.672 5.9444 102.185 7.41118 102.185 9.21412C102.185 11.0168 103.672 12.4832 105.5 12.4832C107.328 12.4832 108.815 11.0168 108.815 9.21412C108.815 7.41118 107.328 5.9444 105.5 5.9444ZM105.499 18.4276C100.216 18.4276 95.756 21.9669 94.4291 26.7667H116.571C115.243 21.9669 110.783 18.4276 105.499 18.4276ZM94.4315 32.7111C95.7584 37.5136 100.216 41.0559 105.499 41.0559C110.783 41.0559 115.241 37.5136 116.568 32.7111H94.4315Z" fill="black"/>
<path d="M1.52588e-05 13.0039C0.000228882 12.9464 0.00396729 12.8883 0.00639343 12.8302C0.00836945 12.7838 0.0085907 12.738 0.0123367 12.6914C0.0125504 12.6886 0.0125504 12.6856 0.0127716 12.6829C0.0154114 12.6504 0.0206909 12.6194 0.0239944 12.5875C0.0310364 12.52 0.0374222 12.4526 0.0475464 12.387C0.0521698 12.3566 0.0589981 12.3277 0.0642776 12.2975C0.0763855 12.2298 0.0882645 12.1618 0.103668 12.0961C0.110718 12.0654 0.119957 12.0365 0.127663 12.0061C0.143951 11.9429 0.16024 11.8793 0.179611 11.8182C0.188858 11.7887 0.200302 11.7604 0.210205 11.7315C0.230896 11.6716 0.251358 11.6114 0.274689 11.5539C0.284813 11.5286 0.2967 11.5051 0.307487 11.4801C0.333458 11.4202 0.359444 11.3606 0.388054 11.3037C0.397301 11.2856 0.40741 11.2688 0.416878 11.251C0.449448 11.1893 0.482697 11.1282 0.51857 11.0703C0.524956 11.0601 0.53199 11.0505 0.538376 11.0405C0.578873 10.9767 0.620697 10.9144 0.664932 10.8557C0.667137 10.8527 0.669334 10.8503 0.671539 10.8473C0.872711 10.5817 1.10954 10.3688 1.3697 10.2228L1.37058 10.2225C1.43485 10.1864 1.50066 10.1548 1.56779 10.1271C1.57968 10.1223 1.59222 10.1189 1.60411 10.1144C1.6598 10.0927 1.7157 10.0729 1.77293 10.0572C1.80176 10.0494 1.83125 10.0452 1.8603 10.0389C1.90212 10.0298 1.9435 10.0199 1.98576 10.0142C2.02802 10.0084 2.07095 10.0075 2.11386 10.0054C2.14512 10.0036 2.17593 9.99972 2.20741 10C2.2424 10.0003 2.27785 10.0048 2.31306 10.0072C2.35356 10.0103 2.39384 10.0109 2.43477 10.0169C2.43631 10.0172 2.43784 10.0169 2.43961 10.0172C10.8622 11.2751 42.4035 26.222 59.7133 39.9795C69.2711 50.388 79.9056 57.6472 86.1052 72.2946C89.6711 74.0237 94.7686 74.3284 98.0857 73.1906C98.1095 59.0354 98.6525 48.1301 111.105 48.1301C124.126 48.1301 124.126 60.0525 124.126 75.1464C124.126 83.5766 123.507 90.2973 121.285 94.7355H122.799C124.015 94.7355 125 96.0834 125 97.7463C125 99.4091 124.015 100.757 122.799 100.757H121.232L122.395 117.296L122.395 117.3L123.201 128.758C123.317 130.414 122.431 131.884 121.221 132.044C121.149 132.053 121.078 132.057 121.007 132.057C119.887 132.057 118.928 130.892 118.819 129.335L118.206 120.616H104.005L103.392 129.335C103.282 130.892 102.324 132.057 101.204 132.057C101.133 132.057 101.062 132.053 100.99 132.044C99.7803 131.884 98.894 130.414 99.0102 128.758L99.8158 117.301C99.816 117.299 99.816 117.297 99.8162 117.295L100.979 100.757H99.4123C99.2466 100.757 99.0854 100.73 98.9301 100.682C96.4189 101.706 94.4028 103.532 93.0214 106.099C90.087 111.554 90.0967 119.988 93.0485 129.848C93.3265 130.777 93.2481 131.834 92.8394 132.667C92.4307 133.5 91.7453 134 91.0117 134H83.5788C82.3632 134 81.3778 132.652 81.3778 130.989C81.3778 129.326 82.3632 127.978 83.5788 127.978H87.8699C85.5127 117.814 86.0552 108.889 89.4756 102.531C91.9799 97.8751 95.8249 94.9745 100.597 94.0346C98.9974 90.4075 98.3331 85.4222 98.1447 79.3459C96.7977 79.7108 95.4192 79.8941 94.0238 79.8941C92.0327 79.8941 90.0074 79.5205 87.9919 78.7792C88.1156 81.4938 88.1805 84.2327 88.1805 86.9878C88.1805 88.6507 87.1951 89.9986 85.9795 89.9986C84.7639 89.9986 83.7785 88.6507 83.7785 86.9878C83.7785 52.1097 17.9345 21.7866 4.40181 16.6526C3.598 16.3476 2.78452 16.1267 1.962 16.0038C0.832436 15.834 -0.00328827 14.524 1.52588e-05 13.0039ZM106.903 93.8955C107.114 93.9509 107.313 94.0475 107.496 94.1776C108.524 94.5934 109.723 94.7352 111.105 94.7352C117.183 94.7352 119.724 92.0131 119.724 75.1461C119.724 57.86 118.981 54.1513 111.105 54.1513C103.968 54.1513 102.689 57.1976 102.512 70.6354C105.452 68.1331 107.689 64.3019 109.046 59.3973C109.477 57.8426 110.746 57.0585 111.884 57.6472C113.021 58.2358 113.594 59.9736 113.163 61.529C111.145 68.8214 107.366 74.4497 102.504 77.4394C102.668 88.022 104.03 92.3085 106.903 93.8955ZM117.782 114.594L116.809 100.757H105.401L104.428 114.594H117.782Z" fill="black"/>
</g>
<defs>
<clipPath id="clip0_1_5">
<rect width="134" height="134" fill="white" transform="matrix(-1 0 0 1 134 0)"/>
</clipPath>
</defs>
</svg>
